<mxfile host="app.diagrams.net" modified="2023-04-13T00:09:50.751Z" agent="Mozilla/5.0 (Windows NT 10.0; Win64; x64) AppleWebKit/537.36 (KHTML, like Gecko) Chrome/111.0.0.0 Safari/537.36" etag="IPmXI0e_ZhjBOFyr648d" version="21.1.7" type="github">
  <diagram name="Page-1" id="5f0bae14-7c28-e335-631c-24af17079c00">
    <mxGraphModel dx="2335" dy="3224" grid="1" gridSize="10" guides="1" tooltips="1" connect="1" arrows="1" fold="1" page="1" pageScale="1" pageWidth="1100" pageHeight="850" background="#000000" math="0" shadow="1">
      <root>
        <mxCell id="0" />
        <mxCell id="1" parent="0" />
        <mxCell id="39150e848f15840c-11" style="edgeStyle=none;rounded=1;html=1;dashed=1;labelBackgroundColor=none;startArrow=none;startFill=0;startSize=8;endArrow=open;endFill=0;endSize=16;fontFamily=Verdana;fontSize=12;strokeColor=#FFFFFF;fontColor=default;strokeWidth=2;exitX=0;exitY=0;exitDx=205;exitDy=5;exitPerimeter=0;entryX=0;entryY=0;entryDx=10;entryDy=330;entryPerimeter=0;" parent="1" source="39150e848f15840c-3" edge="1">
          <mxGeometry relative="1" as="geometry">
            <mxPoint x="276.0195439223726" y="-1516.22" as="sourcePoint" />
            <mxPoint x="620" y="-1460.0000000000002" as="targetPoint" />
          </mxGeometry>
        </mxCell>
        <mxCell id="39150e848f15840c-12" style="edgeStyle=none;rounded=1;html=1;dashed=1;labelBackgroundColor=none;startArrow=none;startFill=0;startSize=8;endArrow=open;endFill=0;endSize=16;fontFamily=Verdana;fontSize=12;entryX=0;entryY=0;entryDx=0;entryDy=0;entryPerimeter=0;strokeColor=#FFFFFF;fontColor=default;strokeWidth=2;exitX=1;exitY=1;exitDx=0;exitDy=0;exitPerimeter=0;" parent="1" source="39150e848f15840c-3" edge="1">
          <mxGeometry relative="1" as="geometry">
            <mxPoint x="-50" y="-1460" as="targetPoint" />
          </mxGeometry>
        </mxCell>
        <mxCell id="39150e848f15840c-16" style="edgeStyle=orthogonalEdgeStyle;rounded=1;html=1;dashed=1;labelBackgroundColor=none;startArrow=none;startFill=0;startSize=8;endArrow=open;endFill=0;endSize=16;fontFamily=Verdana;fontSize=12;strokeColor=#FFFFFF;fontColor=default;fillColor=#f8cecc;strokeWidth=2;entryX=1;entryY=0;entryDx=0;entryDy=0;" parent="1" target="X89QfNM0a1aXQy8c0Njc-26" edge="1">
          <mxGeometry relative="1" as="geometry">
            <mxPoint x="620.0588235294122" y="-1250" as="sourcePoint" />
            <mxPoint x="260" y="-1020" as="targetPoint" />
            <Array as="points">
              <mxPoint x="620" y="-1240" />
              <mxPoint x="480" y="-1240" />
            </Array>
          </mxGeometry>
        </mxCell>
        <mxCell id="vBJ7aFU8pswrzPe9maUh-8" value="" style="curved=1;endArrow=classic;html=1;rounded=1;entryX=-0.018;entryY=0.527;entryDx=0;entryDy=0;entryPerimeter=0;labelBackgroundColor=none;strokeColor=#A8201A;fontColor=default;" parent="1" target="39150e848f15840c-3" edge="1">
          <mxGeometry width="50" height="50" relative="1" as="geometry">
            <mxPoint x="230" y="-1616.22" as="sourcePoint" />
            <mxPoint x="726" y="-1300.22" as="targetPoint" />
            <Array as="points">
              <mxPoint x="280" y="-1616.22" />
            </Array>
          </mxGeometry>
        </mxCell>
        <mxCell id="39150e848f15840c-3" value="" style="verticalAlign=top;align=left;spacingTop=8;spacingLeft=2;spacingRight=12;shape=cube;size=10;direction=south;fontStyle=4;html=1;rounded=1;shadow=0;comic=0;labelBackgroundColor=none;strokeWidth=1;fontFamily=Verdana;fontSize=12;fillColor=#FFFFFF;strokeColor=#36393d;" parent="1" vertex="1">
          <mxGeometry x="100" y="-1700" width="360" height="210" as="geometry" />
        </mxCell>
        <mxCell id="vBJ7aFU8pswrzPe9maUh-9" value="&lt;br&gt;" style="rounded=1;whiteSpace=wrap;html=1;labelBackgroundColor=none;fillColor=#47141E;strokeColor=#6F0000;fontColor=#ffffff;" parent="1" vertex="1">
          <mxGeometry x="100" y="-1700" width="360" height="120" as="geometry" />
        </mxCell>
        <mxCell id="vBJ7aFU8pswrzPe9maUh-22" style="edgeStyle=orthogonalEdgeStyle;rounded=1;html=1;dashed=1;labelBackgroundColor=none;startArrow=none;startFill=0;startSize=8;endArrow=open;endFill=0;endSize=16;fontFamily=Verdana;fontSize=12;strokeColor=#FFFFFF;fontColor=default;fillColor=#f8cecc;exitX=0;exitY=0.5;exitDx=0;exitDy=0;strokeWidth=2;" parent="1" source="X89QfNM0a1aXQy8c0Njc-24" edge="1">
          <mxGeometry relative="1" as="geometry">
            <mxPoint x="90" y="-951.2200000000003" as="sourcePoint" />
            <mxPoint x="-542" y="-810" as="targetPoint" />
            <Array as="points">
              <mxPoint x="-542" y="-1112" />
            </Array>
          </mxGeometry>
        </mxCell>
        <mxCell id="vBJ7aFU8pswrzPe9maUh-36" style="edgeStyle=orthogonalEdgeStyle;rounded=1;html=1;dashed=1;labelBackgroundColor=none;startArrow=none;startFill=0;startSize=8;endArrow=open;endFill=0;endSize=16;fontFamily=Verdana;fontSize=12;strokeColor=#FFFFFF;fontColor=default;fillColor=#f8cecc;strokeWidth=2;entryX=0.616;entryY=0.041;entryDx=0;entryDy=0;entryPerimeter=0;exitX=1;exitY=0.5;exitDx=0;exitDy=0;" parent="1" source="X89QfNM0a1aXQy8c0Njc-24" target="uW_-9VzR9L95MaJclsEE-92" edge="1">
          <mxGeometry relative="1" as="geometry">
            <mxPoint x="410" y="-960" as="sourcePoint" />
            <mxPoint x="1005" y="-810" as="targetPoint" />
            <Array as="points">
              <mxPoint x="430" y="-1112" />
              <mxPoint x="430" y="-1110" />
              <mxPoint x="1100" y="-1110" />
              <mxPoint x="1100" y="-810" />
              <mxPoint x="1097" y="-810" />
            </Array>
          </mxGeometry>
        </mxCell>
        <mxCell id="vBJ7aFU8pswrzPe9maUh-37" value="&lt;font color=&quot;#ffffff&quot; style=&quot;font-size: 16px;&quot;&gt;LOGO&lt;/font&gt;" style="text;html=1;strokeColor=none;fillColor=none;align=center;verticalAlign=middle;whiteSpace=wrap;rounded=0;fontColor=#143642;strokeWidth=3;" parent="1" vertex="1">
          <mxGeometry x="110" y="-1660" width="60" height="30" as="geometry" />
        </mxCell>
        <mxCell id="X89QfNM0a1aXQy8c0Njc-6" value="&lt;font color=&quot;#ffffff&quot; style=&quot;font-size: 16px;&quot;&gt;HOMEPAGE&lt;/font&gt;" style="text;html=1;strokeColor=none;fillColor=none;align=center;verticalAlign=middle;whiteSpace=wrap;rounded=0;fontColor=#143642;strokeWidth=3;" parent="1" vertex="1">
          <mxGeometry x="120" y="-1700" width="60" height="30" as="geometry" />
        </mxCell>
        <mxCell id="X89QfNM0a1aXQy8c0Njc-7" value="&lt;font style=&quot;&quot;&gt;&lt;font color=&quot;#ffffff&quot; style=&quot;font-size: 7px;&quot;&gt;ENTRAR&lt;/font&gt;&lt;br&gt;&lt;/font&gt;" style="text;html=1;strokeColor=none;fillColor=none;align=center;verticalAlign=middle;whiteSpace=wrap;rounded=0;fontColor=#143642;strokeWidth=3;" parent="1" vertex="1">
          <mxGeometry x="330" y="-1670" width="60" height="30" as="geometry" />
        </mxCell>
        <mxCell id="X89QfNM0a1aXQy8c0Njc-8" value="&lt;font style=&quot;&quot;&gt;&lt;font color=&quot;#ffffff&quot; style=&quot;font-size: 7px;&quot;&gt;REGISTRAR&lt;/font&gt;&lt;br&gt;&lt;/font&gt;" style="text;html=1;strokeColor=none;fillColor=none;align=center;verticalAlign=middle;whiteSpace=wrap;rounded=0;fontColor=#143642;strokeWidth=3;" parent="1" vertex="1">
          <mxGeometry x="390" y="-1670" width="60" height="30" as="geometry" />
        </mxCell>
        <mxCell id="X89QfNM0a1aXQy8c0Njc-9" value="&lt;font style=&quot;&quot;&gt;&lt;font color=&quot;#ffffff&quot;&gt;&lt;span style=&quot;font-size: 7px;&quot;&gt;Controlar suas finanças nunca foi tão simples&lt;/span&gt;&lt;/font&gt;&lt;br&gt;&lt;/font&gt;" style="text;html=1;strokeColor=none;fillColor=none;align=center;verticalAlign=middle;whiteSpace=wrap;rounded=0;fontColor=#143642;strokeWidth=3;" parent="1" vertex="1">
          <mxGeometry x="100" y="-1620" width="160" height="30" as="geometry" />
        </mxCell>
        <mxCell id="X89QfNM0a1aXQy8c0Njc-10" value="&lt;font style=&quot;&quot;&gt;&lt;span style=&quot;font-size: 7px;&quot;&gt;&lt;font color=&quot;#000000&quot;&gt;Fácil de usar&lt;/font&gt;&lt;/span&gt;&lt;br&gt;&lt;/font&gt;" style="text;html=1;strokeColor=none;fillColor=none;align=center;verticalAlign=middle;whiteSpace=wrap;rounded=0;fontColor=#143642;strokeWidth=3;" parent="1" vertex="1">
          <mxGeometry x="80" y="-1550" width="160" height="30" as="geometry" />
        </mxCell>
        <mxCell id="X89QfNM0a1aXQy8c0Njc-11" value="&lt;font style=&quot;&quot;&gt;&lt;span style=&quot;font-size: 7px;&quot;&gt;&lt;font color=&quot;#000000&quot;&gt;Tudo em um só lugar&lt;/font&gt;&lt;/span&gt;&lt;br&gt;&lt;/font&gt;" style="text;html=1;strokeColor=none;fillColor=none;align=center;verticalAlign=middle;whiteSpace=wrap;rounded=0;fontColor=#143642;strokeWidth=3;" parent="1" vertex="1">
          <mxGeometry x="190" y="-1550" width="160" height="30" as="geometry" />
        </mxCell>
        <mxCell id="X89QfNM0a1aXQy8c0Njc-12" value="&lt;font style=&quot;&quot;&gt;&lt;span style=&quot;font-size: 7px;&quot;&gt;&lt;font color=&quot;#000000&quot;&gt;Eficácia garantida&lt;/font&gt;&lt;/span&gt;&lt;br&gt;&lt;/font&gt;" style="text;html=1;strokeColor=none;fillColor=none;align=center;verticalAlign=middle;whiteSpace=wrap;rounded=0;fontColor=#143642;strokeWidth=3;" parent="1" vertex="1">
          <mxGeometry x="300" y="-1550" width="160" height="30" as="geometry" />
        </mxCell>
        <mxCell id="X89QfNM0a1aXQy8c0Njc-21" value="&lt;font color=&quot;#ffffff&quot;&gt;&lt;span style=&quot;font-size: 16px;&quot;&gt;REGISTER PAGE&lt;/span&gt;&lt;/font&gt;" style="text;html=1;strokeColor=none;fillColor=none;align=center;verticalAlign=middle;whiteSpace=wrap;rounded=0;fontColor=#143642;strokeWidth=3;" parent="1" vertex="1">
          <mxGeometry x="-415" y="-1500" width="150" height="30" as="geometry" />
        </mxCell>
        <mxCell id="X89QfNM0a1aXQy8c0Njc-22" value="&lt;font color=&quot;#ffffff&quot; style=&quot;font-size: 16px;&quot;&gt;LOGIN PAGE&lt;/font&gt;" style="text;html=1;strokeColor=none;fillColor=none;align=center;verticalAlign=middle;whiteSpace=wrap;rounded=0;fontColor=#143642;strokeWidth=3;" parent="1" vertex="1">
          <mxGeometry x="620" y="-1500" width="120" height="30" as="geometry" />
        </mxCell>
        <mxCell id="X89QfNM0a1aXQy8c0Njc-23" value="&lt;font color=&quot;#ffffff&quot; style=&quot;font-size: 16px;&quot;&gt;PÁGINA INICIAL&lt;/font&gt;" style="text;html=1;strokeColor=none;fillColor=none;align=center;verticalAlign=middle;whiteSpace=wrap;rounded=0;fontColor=#143642;strokeWidth=3;" parent="1" vertex="1">
          <mxGeometry x="100" y="-1250" width="170" height="30" as="geometry" />
        </mxCell>
        <mxCell id="X89QfNM0a1aXQy8c0Njc-25" value="" style="endArrow=none;dashed=1;html=1;dashPattern=1 3;strokeWidth=2;rounded=0;strokeColor=#FFFFFF;fontColor=#143642;fillColor=#FAE5C7;exitX=0;exitY=0;exitDx=105;exitDy=0;exitPerimeter=0;entryX=0;entryY=0;entryDx=0;entryDy=155;entryPerimeter=0;" parent="1" target="X89QfNM0a1aXQy8c0Njc-24" edge="1">
          <mxGeometry width="50" height="50" relative="1" as="geometry">
            <mxPoint x="479.99999999999955" y="-1131.2200000000003" as="sourcePoint" />
            <mxPoint x="715" y="-980" as="targetPoint" />
            <Array as="points" />
          </mxGeometry>
        </mxCell>
        <mxCell id="X89QfNM0a1aXQy8c0Njc-24" value="" style="rounded=0;whiteSpace=wrap;html=1;fillColor=#FFFFFF;" parent="1" vertex="1">
          <mxGeometry x="120" y="-1220" width="360" height="216.22" as="geometry" />
        </mxCell>
        <mxCell id="X89QfNM0a1aXQy8c0Njc-26" value="" style="rounded=0;whiteSpace=wrap;html=1;strokeColor=#47141E;fillColor=#47141E;" parent="1" vertex="1">
          <mxGeometry x="120" y="-1220" width="360" height="46.22" as="geometry" />
        </mxCell>
        <mxCell id="X89QfNM0a1aXQy8c0Njc-27" value="" style="rounded=0;whiteSpace=wrap;html=1;fillColor=#47141E;" parent="1" vertex="1">
          <mxGeometry x="120" y="-1027.56" width="360" height="23.78" as="geometry" />
        </mxCell>
        <mxCell id="X89QfNM0a1aXQy8c0Njc-28" value="&lt;font color=&quot;#ffffff&quot; style=&quot;font-size: 16px;&quot;&gt;LOGO&lt;/font&gt;" style="text;html=1;strokeColor=none;fillColor=none;align=center;verticalAlign=middle;whiteSpace=wrap;rounded=0;fontColor=#143642;strokeWidth=3;" parent="1" vertex="1">
          <mxGeometry x="65" y="-1220" width="170" height="30" as="geometry" />
        </mxCell>
        <mxCell id="X89QfNM0a1aXQy8c0Njc-32" style="edgeStyle=orthogonalEdgeStyle;rounded=0;orthogonalLoop=1;jettySize=auto;html=1;exitX=0.5;exitY=1;exitDx=0;exitDy=0;" parent="1" edge="1">
          <mxGeometry relative="1" as="geometry">
            <mxPoint x="145" y="-1190" as="sourcePoint" />
            <mxPoint x="145" y="-1190" as="targetPoint" />
          </mxGeometry>
        </mxCell>
        <mxCell id="X89QfNM0a1aXQy8c0Njc-34" value="&lt;font color=&quot;#ffffff&quot; style=&quot;font-size: 7px;&quot;&gt;CONTAS&lt;/font&gt;" style="text;html=1;strokeColor=none;fillColor=none;align=center;verticalAlign=middle;whiteSpace=wrap;rounded=0;fontColor=#143642;strokeWidth=3;" parent="1" vertex="1">
          <mxGeometry x="170" y="-1190" width="40" height="16.22" as="geometry" />
        </mxCell>
        <mxCell id="X89QfNM0a1aXQy8c0Njc-41" value="&lt;font color=&quot;#ffffff&quot; style=&quot;font-size: 7px;&quot;&gt;INDICADORES&lt;/font&gt;" style="text;html=1;strokeColor=none;fillColor=none;align=center;verticalAlign=middle;whiteSpace=wrap;rounded=0;fontColor=#143642;strokeWidth=3;" parent="1" vertex="1">
          <mxGeometry x="250" y="-1190" width="40" height="16.22" as="geometry" />
        </mxCell>
        <mxCell id="X89QfNM0a1aXQy8c0Njc-42" value="&lt;font color=&quot;#ffffff&quot; style=&quot;font-size: 7px;&quot;&gt;CAIXA&lt;/font&gt;" style="text;html=1;strokeColor=none;fillColor=none;align=center;verticalAlign=middle;whiteSpace=wrap;rounded=0;fontColor=#143642;strokeWidth=3;" parent="1" vertex="1">
          <mxGeometry x="320" y="-1190" width="40" height="16.22" as="geometry" />
        </mxCell>
        <mxCell id="X89QfNM0a1aXQy8c0Njc-43" value="&lt;font color=&quot;#ffffff&quot;&gt;&lt;span style=&quot;font-size: 7px;&quot;&gt;PAGAMENTOS&lt;/span&gt;&lt;/font&gt;" style="text;html=1;strokeColor=none;fillColor=none;align=center;verticalAlign=middle;whiteSpace=wrap;rounded=0;fontColor=#143642;strokeWidth=3;" parent="1" vertex="1">
          <mxGeometry x="390" y="-1190" width="40" height="16.22" as="geometry" />
        </mxCell>
        <mxCell id="X89QfNM0a1aXQy8c0Njc-45" value="&lt;font color=&quot;#ffffff&quot; style=&quot;font-size: 7px;&quot;&gt;CONFIGURAÇÕES&lt;/font&gt;" style="text;html=1;strokeColor=none;fillColor=none;align=center;verticalAlign=middle;whiteSpace=wrap;rounded=0;fontColor=#143642;strokeWidth=3;" parent="1" vertex="1">
          <mxGeometry x="430" y="-1220" width="40" height="16.22" as="geometry" />
        </mxCell>
        <mxCell id="X89QfNM0a1aXQy8c0Njc-59" value="" style="shape=ext;double=1;rounded=0;whiteSpace=wrap;html=1;" parent="1" vertex="1">
          <mxGeometry x="165" y="-1160" width="270" height="120" as="geometry" />
        </mxCell>
        <mxCell id="X89QfNM0a1aXQy8c0Njc-61" value="" style="endArrow=none;html=1;rounded=0;entryX=0.997;entryY=0.276;entryDx=0;entryDy=0;entryPerimeter=0;" parent="1" source="X89QfNM0a1aXQy8c0Njc-59" target="X89QfNM0a1aXQy8c0Njc-59" edge="1">
          <mxGeometry width="50" height="50" relative="1" as="geometry">
            <mxPoint x="270" y="-1060" as="sourcePoint" />
            <mxPoint x="320" y="-1110" as="targetPoint" />
            <Array as="points">
              <mxPoint x="190" y="-1050" />
              <mxPoint x="200" y="-1080" />
              <mxPoint x="230" y="-1060" />
              <mxPoint x="260" y="-1080" />
              <mxPoint x="280" y="-1050" />
              <mxPoint x="310" y="-1090" />
              <mxPoint x="330" y="-1070" />
              <mxPoint x="370" y="-1100" />
              <mxPoint x="400" y="-1100" />
            </Array>
          </mxGeometry>
        </mxCell>
        <mxCell id="X89QfNM0a1aXQy8c0Njc-65" style="edgeStyle=orthogonalEdgeStyle;rounded=1;html=1;dashed=1;labelBackgroundColor=none;startArrow=none;startFill=0;startSize=8;endArrow=open;endFill=0;endSize=16;fontFamily=Verdana;fontSize=12;strokeColor=#FFFFFF;fontColor=default;fillColor=#f8cecc;strokeWidth=2;entryX=-0.011;entryY=0.535;entryDx=0;entryDy=0;entryPerimeter=0;exitX=0;exitY=0.5;exitDx=0;exitDy=0;" parent="1" source="X89QfNM0a1aXQy8c0Njc-24" edge="1">
          <mxGeometry relative="1" as="geometry">
            <mxPoint x="100" y="-1080" as="sourcePoint" />
            <mxPoint x="-141.19999999999982" y="-812.4200000000001" as="targetPoint" />
            <Array as="points">
              <mxPoint x="100" y="-1112" />
              <mxPoint x="-141" y="-1110" />
            </Array>
          </mxGeometry>
        </mxCell>
        <mxCell id="X89QfNM0a1aXQy8c0Njc-66" style="edgeStyle=orthogonalEdgeStyle;rounded=1;html=1;dashed=1;labelBackgroundColor=none;startArrow=none;startFill=0;startSize=8;endArrow=open;endFill=0;endSize=16;fontFamily=Verdana;fontSize=12;strokeColor=#FFFFFF;fontColor=default;fillColor=#f8cecc;strokeWidth=2;" parent="1" edge="1">
          <mxGeometry relative="1" as="geometry">
            <mxPoint x="290" y="-1000" as="sourcePoint" />
            <mxPoint x="280" y="-810" as="targetPoint" />
            <Array as="points">
              <mxPoint x="280" y="-1000" />
              <mxPoint x="280" y="-810" />
            </Array>
          </mxGeometry>
        </mxCell>
        <mxCell id="uW_-9VzR9L95MaJclsEE-1" style="edgeStyle=none;rounded=1;html=1;dashed=1;labelBackgroundColor=none;startArrow=none;startFill=0;startSize=8;endArrow=open;endFill=0;endSize=16;fontFamily=Verdana;fontSize=12;strokeColor=#FFFFFF;fontColor=default;strokeWidth=2;exitX=0;exitY=0;exitDx=105;exitDy=0;exitPerimeter=0;entryX=0.472;entryY=1.005;entryDx=0;entryDy=0;entryPerimeter=0;" edge="1" parent="1" source="uW_-9VzR9L95MaJclsEE-122">
          <mxGeometry relative="1" as="geometry">
            <mxPoint x="-50" y="-1355" as="sourcePoint" />
            <mxPoint x="618.3499999999999" y="-1366.1599999999999" as="targetPoint" />
            <Array as="points" />
          </mxGeometry>
        </mxCell>
        <mxCell id="uW_-9VzR9L95MaJclsEE-11" style="edgeStyle=orthogonalEdgeStyle;rounded=1;html=1;dashed=1;labelBackgroundColor=none;startArrow=none;startFill=0;startSize=8;endArrow=open;endFill=0;endSize=16;fontFamily=Verdana;fontSize=12;strokeColor=#FFFFFF;fontColor=default;fillColor=#f8cecc;strokeWidth=2;exitX=1;exitY=0.5;exitDx=0;exitDy=0;entryX=0.569;entryY=0.012;entryDx=0;entryDy=0;entryPerimeter=0;" edge="1" parent="1" target="uW_-9VzR9L95MaJclsEE-78">
          <mxGeometry relative="1" as="geometry">
            <mxPoint x="480" y="-1102" as="sourcePoint" />
            <mxPoint x="690" y="-820" as="targetPoint" />
            <Array as="points">
              <mxPoint x="480" y="-1110" />
              <mxPoint x="690" y="-1110" />
            </Array>
          </mxGeometry>
        </mxCell>
        <mxCell id="uW_-9VzR9L95MaJclsEE-12" value="&lt;span style=&quot;font-size: 16px;&quot;&gt;&lt;font color=&quot;#000000&quot;&gt;FUNCIONALIDADE&lt;/font&gt;&lt;/span&gt;" style="text;html=1;strokeColor=none;fillColor=none;align=center;verticalAlign=middle;whiteSpace=wrap;rounded=0;fontColor=#143642;strokeWidth=3;" vertex="1" parent="1">
          <mxGeometry x="-265" y="-796.22" width="150" height="30" as="geometry" />
        </mxCell>
        <mxCell id="uW_-9VzR9L95MaJclsEE-13" value="&lt;span style=&quot;font-size: 16px;&quot;&gt;&lt;font color=&quot;#000000&quot;&gt;FUNCIONALIDADE&lt;/font&gt;&lt;/span&gt;" style="text;html=1;strokeColor=none;fillColor=none;align=center;verticalAlign=middle;whiteSpace=wrap;rounded=0;fontColor=#143642;strokeWidth=3;" vertex="1" parent="1">
          <mxGeometry x="-300" y="-520" width="150" height="30" as="geometry" />
        </mxCell>
        <mxCell id="uW_-9VzR9L95MaJclsEE-16" value="&lt;span style=&quot;font-size: 16px;&quot;&gt;&lt;font color=&quot;#000000&quot;&gt;FUNCIONALIDADE&lt;/font&gt;&lt;/span&gt;" style="text;html=1;strokeColor=none;fillColor=none;align=center;verticalAlign=middle;whiteSpace=wrap;rounded=0;fontColor=#143642;strokeWidth=3;" vertex="1" parent="1">
          <mxGeometry x="840" y="-520" width="150" height="30" as="geometry" />
        </mxCell>
        <mxCell id="uW_-9VzR9L95MaJclsEE-18" value="" style="endArrow=none;dashed=1;html=1;dashPattern=1 3;strokeWidth=2;rounded=0;strokeColor=#FFFFFF;fontColor=#143642;fillColor=#FAE5C7;exitX=0;exitY=0;exitDx=105;exitDy=0;exitPerimeter=0;entryX=0;entryY=0;entryDx=0;entryDy=155;entryPerimeter=0;" edge="1" parent="1" target="uW_-9VzR9L95MaJclsEE-19">
          <mxGeometry width="50" height="50" relative="1" as="geometry">
            <mxPoint x="54.999999999999545" y="-717.4400000000003" as="sourcePoint" />
            <mxPoint x="290" y="-566.22" as="targetPoint" />
            <Array as="points" />
          </mxGeometry>
        </mxCell>
        <mxCell id="uW_-9VzR9L95MaJclsEE-19" value="" style="rounded=0;whiteSpace=wrap;html=1;fillColor=#FFFFFF;" vertex="1" parent="1">
          <mxGeometry x="-305" y="-806.22" width="360" height="216.22" as="geometry" />
        </mxCell>
        <mxCell id="uW_-9VzR9L95MaJclsEE-20" value="" style="rounded=0;whiteSpace=wrap;html=1;strokeColor=#47141E;fillColor=#47141E;" vertex="1" parent="1">
          <mxGeometry x="-305" y="-806.22" width="360" height="46.22" as="geometry" />
        </mxCell>
        <mxCell id="uW_-9VzR9L95MaJclsEE-21" value="" style="rounded=0;whiteSpace=wrap;html=1;fillColor=#47141E;" vertex="1" parent="1">
          <mxGeometry x="-305" y="-613.78" width="360" height="23.78" as="geometry" />
        </mxCell>
        <mxCell id="uW_-9VzR9L95MaJclsEE-22" value="&lt;font color=&quot;#ffffff&quot; style=&quot;font-size: 16px;&quot;&gt;LOGO&lt;/font&gt;" style="text;html=1;strokeColor=none;fillColor=none;align=center;verticalAlign=middle;whiteSpace=wrap;rounded=0;fontColor=#143642;strokeWidth=3;" vertex="1" parent="1">
          <mxGeometry x="-360" y="-806.22" width="170" height="30" as="geometry" />
        </mxCell>
        <mxCell id="uW_-9VzR9L95MaJclsEE-23" style="edgeStyle=orthogonalEdgeStyle;rounded=0;orthogonalLoop=1;jettySize=auto;html=1;exitX=0.5;exitY=1;exitDx=0;exitDy=0;" edge="1" parent="1">
          <mxGeometry relative="1" as="geometry">
            <mxPoint x="-280" y="-776.22" as="sourcePoint" />
            <mxPoint x="-280" y="-776.22" as="targetPoint" />
          </mxGeometry>
        </mxCell>
        <mxCell id="uW_-9VzR9L95MaJclsEE-24" value="&lt;font color=&quot;#ffffff&quot; style=&quot;font-size: 7px;&quot;&gt;CONTAS&lt;/font&gt;" style="text;html=1;strokeColor=none;fillColor=none;align=center;verticalAlign=middle;whiteSpace=wrap;rounded=0;fontColor=#143642;strokeWidth=3;" vertex="1" parent="1">
          <mxGeometry x="-255" y="-776.22" width="40" height="16.22" as="geometry" />
        </mxCell>
        <mxCell id="uW_-9VzR9L95MaJclsEE-25" value="&lt;font color=&quot;#ffffff&quot; style=&quot;font-size: 7px;&quot;&gt;INDICADORES&lt;/font&gt;" style="text;html=1;strokeColor=none;fillColor=none;align=center;verticalAlign=middle;whiteSpace=wrap;rounded=0;fontColor=#143642;strokeWidth=3;" vertex="1" parent="1">
          <mxGeometry x="-175" y="-776.22" width="40" height="16.22" as="geometry" />
        </mxCell>
        <mxCell id="uW_-9VzR9L95MaJclsEE-26" value="&lt;font color=&quot;#ffffff&quot; style=&quot;font-size: 7px;&quot;&gt;CAIXA&lt;/font&gt;" style="text;html=1;strokeColor=none;fillColor=none;align=center;verticalAlign=middle;whiteSpace=wrap;rounded=0;fontColor=#143642;strokeWidth=3;" vertex="1" parent="1">
          <mxGeometry x="-105" y="-776.22" width="40" as="geometry" />
        </mxCell>
        <mxCell id="uW_-9VzR9L95MaJclsEE-27" value="&lt;font color=&quot;#ffffff&quot;&gt;&lt;span style=&quot;font-size: 7px;&quot;&gt;PAGAMENTOS&lt;/span&gt;&lt;/font&gt;" style="text;html=1;strokeColor=none;fillColor=none;align=center;verticalAlign=middle;whiteSpace=wrap;rounded=0;fontColor=#143642;strokeWidth=3;" vertex="1" parent="1">
          <mxGeometry x="-35" y="-776.22" width="40" height="16.22" as="geometry" />
        </mxCell>
        <mxCell id="uW_-9VzR9L95MaJclsEE-28" value="&lt;font color=&quot;#ffffff&quot; style=&quot;font-size: 7px;&quot;&gt;CONFIGURAÇÕES&lt;/font&gt;" style="text;html=1;strokeColor=none;fillColor=none;align=center;verticalAlign=middle;whiteSpace=wrap;rounded=0;fontColor=#143642;strokeWidth=3;" vertex="1" parent="1">
          <mxGeometry x="5" y="-806.22" width="40" height="16.22" as="geometry" />
        </mxCell>
        <mxCell id="uW_-9VzR9L95MaJclsEE-29" value="" style="shape=ext;double=1;rounded=0;whiteSpace=wrap;html=1;" vertex="1" parent="1">
          <mxGeometry x="-260" y="-746.22" width="270" height="120" as="geometry" />
        </mxCell>
        <mxCell id="uW_-9VzR9L95MaJclsEE-30" value="" style="endArrow=none;html=1;rounded=0;entryX=0.997;entryY=0.276;entryDx=0;entryDy=0;entryPerimeter=0;" edge="1" parent="1" source="uW_-9VzR9L95MaJclsEE-29" target="uW_-9VzR9L95MaJclsEE-29">
          <mxGeometry width="50" height="50" relative="1" as="geometry">
            <mxPoint x="-155" y="-646.22" as="sourcePoint" />
            <mxPoint x="-105" y="-696.22" as="targetPoint" />
            <Array as="points">
              <mxPoint x="-235" y="-636.22" />
              <mxPoint x="-225" y="-666.22" />
              <mxPoint x="-195" y="-646.22" />
              <mxPoint x="-165" y="-666.22" />
              <mxPoint x="-145" y="-636.22" />
              <mxPoint x="-115" y="-676.22" />
              <mxPoint x="-95" y="-656.22" />
              <mxPoint x="-55" y="-686.22" />
              <mxPoint x="-25" y="-686.22" />
            </Array>
          </mxGeometry>
        </mxCell>
        <mxCell id="uW_-9VzR9L95MaJclsEE-31" value="&lt;span style=&quot;font-size: 16px;&quot;&gt;&lt;font color=&quot;#000000&quot;&gt;FUNCIONALIDADE&lt;/font&gt;&lt;/span&gt;" style="text;html=1;strokeColor=none;fillColor=none;align=center;verticalAlign=middle;whiteSpace=wrap;rounded=0;fontColor=#143642;strokeWidth=3;" vertex="1" parent="1">
          <mxGeometry x="-670" y="-796.22" width="150" height="30" as="geometry" />
        </mxCell>
        <mxCell id="uW_-9VzR9L95MaJclsEE-32" value="&lt;font color=&quot;#ffffff&quot; style=&quot;font-size: 16px;&quot;&gt;CONTAS À PAGAR&lt;/font&gt;" style="text;html=1;strokeColor=none;fillColor=none;align=center;verticalAlign=middle;whiteSpace=wrap;rounded=0;fontColor=#143642;strokeWidth=3;" vertex="1" parent="1">
          <mxGeometry x="-730" y="-836.22" width="170" height="30" as="geometry" />
        </mxCell>
        <mxCell id="uW_-9VzR9L95MaJclsEE-33" value="" style="endArrow=none;dashed=1;html=1;dashPattern=1 3;strokeWidth=2;rounded=0;strokeColor=#FFFFFF;fontColor=#143642;fillColor=#FAE5C7;exitX=0;exitY=0;exitDx=105;exitDy=0;exitPerimeter=0;entryX=0;entryY=0;entryDx=0;entryDy=155;entryPerimeter=0;" edge="1" parent="1" target="uW_-9VzR9L95MaJclsEE-34">
          <mxGeometry width="50" height="50" relative="1" as="geometry">
            <mxPoint x="-350.00000000000045" y="-717.4400000000003" as="sourcePoint" />
            <mxPoint x="-115" y="-566.22" as="targetPoint" />
            <Array as="points" />
          </mxGeometry>
        </mxCell>
        <mxCell id="uW_-9VzR9L95MaJclsEE-34" value="" style="rounded=0;whiteSpace=wrap;html=1;fillColor=#FFFFFF;" vertex="1" parent="1">
          <mxGeometry x="-710" y="-806.22" width="360" height="216.22" as="geometry" />
        </mxCell>
        <mxCell id="uW_-9VzR9L95MaJclsEE-35" value="" style="rounded=0;whiteSpace=wrap;html=1;strokeColor=#47141E;fillColor=#47141E;" vertex="1" parent="1">
          <mxGeometry x="-710" y="-806.22" width="360" height="46.22" as="geometry" />
        </mxCell>
        <mxCell id="uW_-9VzR9L95MaJclsEE-36" value="" style="rounded=0;whiteSpace=wrap;html=1;fillColor=#47141E;" vertex="1" parent="1">
          <mxGeometry x="-710" y="-613.78" width="360" height="23.78" as="geometry" />
        </mxCell>
        <mxCell id="uW_-9VzR9L95MaJclsEE-37" value="&lt;font color=&quot;#ffffff&quot; style=&quot;font-size: 16px;&quot;&gt;LOGO&lt;/font&gt;" style="text;html=1;strokeColor=none;fillColor=none;align=center;verticalAlign=middle;whiteSpace=wrap;rounded=0;fontColor=#143642;strokeWidth=3;" vertex="1" parent="1">
          <mxGeometry x="-765" y="-806.22" width="170" height="30" as="geometry" />
        </mxCell>
        <mxCell id="uW_-9VzR9L95MaJclsEE-38" style="edgeStyle=orthogonalEdgeStyle;rounded=0;orthogonalLoop=1;jettySize=auto;html=1;exitX=0.5;exitY=1;exitDx=0;exitDy=0;" edge="1" parent="1">
          <mxGeometry relative="1" as="geometry">
            <mxPoint x="-685" y="-776.22" as="sourcePoint" />
            <mxPoint x="-685" y="-776.22" as="targetPoint" />
          </mxGeometry>
        </mxCell>
        <mxCell id="uW_-9VzR9L95MaJclsEE-39" value="&lt;font color=&quot;#ffffff&quot; style=&quot;font-size: 7px;&quot;&gt;CONTAS&lt;/font&gt;" style="text;html=1;strokeColor=none;fillColor=none;align=center;verticalAlign=middle;whiteSpace=wrap;rounded=0;fontColor=#143642;strokeWidth=3;" vertex="1" parent="1">
          <mxGeometry x="-660" y="-776.22" width="40" height="16.22" as="geometry" />
        </mxCell>
        <mxCell id="uW_-9VzR9L95MaJclsEE-40" value="&lt;font color=&quot;#ffffff&quot; style=&quot;font-size: 7px;&quot;&gt;INDICADORES&lt;/font&gt;" style="text;html=1;strokeColor=none;fillColor=none;align=center;verticalAlign=middle;whiteSpace=wrap;rounded=0;fontColor=#143642;strokeWidth=3;" vertex="1" parent="1">
          <mxGeometry x="-580" y="-776.22" width="40" height="16.22" as="geometry" />
        </mxCell>
        <mxCell id="uW_-9VzR9L95MaJclsEE-41" value="&lt;font color=&quot;#ffffff&quot; style=&quot;font-size: 7px;&quot;&gt;CAIXA&lt;/font&gt;" style="text;html=1;strokeColor=none;fillColor=none;align=center;verticalAlign=middle;whiteSpace=wrap;rounded=0;fontColor=#143642;strokeWidth=3;" vertex="1" parent="1">
          <mxGeometry x="-510" y="-776.22" width="40" as="geometry" />
        </mxCell>
        <mxCell id="uW_-9VzR9L95MaJclsEE-42" value="&lt;font color=&quot;#ffffff&quot;&gt;&lt;span style=&quot;font-size: 7px;&quot;&gt;PAGAMENTOS&lt;/span&gt;&lt;/font&gt;" style="text;html=1;strokeColor=none;fillColor=none;align=center;verticalAlign=middle;whiteSpace=wrap;rounded=0;fontColor=#143642;strokeWidth=3;" vertex="1" parent="1">
          <mxGeometry x="-440" y="-776.22" width="40" height="16.22" as="geometry" />
        </mxCell>
        <mxCell id="uW_-9VzR9L95MaJclsEE-43" value="&lt;font color=&quot;#ffffff&quot; style=&quot;font-size: 7px;&quot;&gt;CONFIGURAÇÕES&lt;/font&gt;" style="text;html=1;strokeColor=none;fillColor=none;align=center;verticalAlign=middle;whiteSpace=wrap;rounded=0;fontColor=#143642;strokeWidth=3;" vertex="1" parent="1">
          <mxGeometry x="-400" y="-806.22" width="40" height="16.22" as="geometry" />
        </mxCell>
        <mxCell id="uW_-9VzR9L95MaJclsEE-61" value="&lt;span style=&quot;font-size: 16px;&quot;&gt;&lt;font color=&quot;#000000&quot;&gt;FUNCIONALIDADE&lt;/font&gt;&lt;/span&gt;" style="text;html=1;strokeColor=none;fillColor=none;align=center;verticalAlign=middle;whiteSpace=wrap;rounded=0;fontColor=#143642;strokeWidth=3;" vertex="1" parent="1">
          <mxGeometry x="140" y="-796.22" width="150" height="30" as="geometry" />
        </mxCell>
        <mxCell id="uW_-9VzR9L95MaJclsEE-62" value="" style="endArrow=none;dashed=1;html=1;dashPattern=1 3;strokeWidth=2;rounded=0;strokeColor=#FFFFFF;fontColor=#143642;fillColor=#FAE5C7;exitX=0;exitY=0;exitDx=105;exitDy=0;exitPerimeter=0;entryX=0;entryY=0;entryDx=0;entryDy=155;entryPerimeter=0;" edge="1" parent="1" target="uW_-9VzR9L95MaJclsEE-63">
          <mxGeometry width="50" height="50" relative="1" as="geometry">
            <mxPoint x="459.99999999999955" y="-717.4400000000003" as="sourcePoint" />
            <mxPoint x="695" y="-566.22" as="targetPoint" />
            <Array as="points" />
          </mxGeometry>
        </mxCell>
        <mxCell id="uW_-9VzR9L95MaJclsEE-63" value="" style="rounded=0;whiteSpace=wrap;html=1;fillColor=#FFFFFF;" vertex="1" parent="1">
          <mxGeometry x="100" y="-806.22" width="360" height="216.22" as="geometry" />
        </mxCell>
        <mxCell id="uW_-9VzR9L95MaJclsEE-64" value="" style="rounded=0;whiteSpace=wrap;html=1;strokeColor=#47141E;fillColor=#47141E;" vertex="1" parent="1">
          <mxGeometry x="100" y="-806.22" width="360" height="46.22" as="geometry" />
        </mxCell>
        <mxCell id="uW_-9VzR9L95MaJclsEE-65" value="" style="rounded=0;whiteSpace=wrap;html=1;fillColor=#47141E;" vertex="1" parent="1">
          <mxGeometry x="100" y="-613.78" width="360" height="23.78" as="geometry" />
        </mxCell>
        <mxCell id="uW_-9VzR9L95MaJclsEE-66" value="&lt;font color=&quot;#ffffff&quot; style=&quot;font-size: 16px;&quot;&gt;LOGO&lt;/font&gt;" style="text;html=1;strokeColor=none;fillColor=none;align=center;verticalAlign=middle;whiteSpace=wrap;rounded=0;fontColor=#143642;strokeWidth=3;" vertex="1" parent="1">
          <mxGeometry x="45" y="-806.22" width="170" height="30" as="geometry" />
        </mxCell>
        <mxCell id="uW_-9VzR9L95MaJclsEE-67" style="edgeStyle=orthogonalEdgeStyle;rounded=0;orthogonalLoop=1;jettySize=auto;html=1;exitX=0.5;exitY=1;exitDx=0;exitDy=0;" edge="1" parent="1">
          <mxGeometry relative="1" as="geometry">
            <mxPoint x="125" y="-776.22" as="sourcePoint" />
            <mxPoint x="125" y="-776.22" as="targetPoint" />
          </mxGeometry>
        </mxCell>
        <mxCell id="uW_-9VzR9L95MaJclsEE-68" value="&lt;font color=&quot;#ffffff&quot; style=&quot;font-size: 7px;&quot;&gt;CONTAS&lt;/font&gt;" style="text;html=1;strokeColor=none;fillColor=none;align=center;verticalAlign=middle;whiteSpace=wrap;rounded=0;fontColor=#143642;strokeWidth=3;" vertex="1" parent="1">
          <mxGeometry x="150" y="-776.22" width="40" height="16.22" as="geometry" />
        </mxCell>
        <mxCell id="uW_-9VzR9L95MaJclsEE-69" value="&lt;font color=&quot;#ffffff&quot; style=&quot;font-size: 7px;&quot;&gt;INDICADORES&lt;/font&gt;" style="text;html=1;strokeColor=none;fillColor=none;align=center;verticalAlign=middle;whiteSpace=wrap;rounded=0;fontColor=#143642;strokeWidth=3;" vertex="1" parent="1">
          <mxGeometry x="230" y="-776.22" width="40" height="16.22" as="geometry" />
        </mxCell>
        <mxCell id="uW_-9VzR9L95MaJclsEE-70" value="&lt;font color=&quot;#ffffff&quot; style=&quot;font-size: 7px;&quot;&gt;CAIXA&lt;/font&gt;" style="text;html=1;strokeColor=none;fillColor=none;align=center;verticalAlign=middle;whiteSpace=wrap;rounded=0;fontColor=#143642;strokeWidth=3;" vertex="1" parent="1">
          <mxGeometry x="300" y="-776.22" width="40" as="geometry" />
        </mxCell>
        <mxCell id="uW_-9VzR9L95MaJclsEE-71" value="&lt;font color=&quot;#ffffff&quot;&gt;&lt;span style=&quot;font-size: 7px;&quot;&gt;PAGAMENTOS&lt;/span&gt;&lt;/font&gt;" style="text;html=1;strokeColor=none;fillColor=none;align=center;verticalAlign=middle;whiteSpace=wrap;rounded=0;fontColor=#143642;strokeWidth=3;" vertex="1" parent="1">
          <mxGeometry x="370" y="-776.22" width="40" height="16.22" as="geometry" />
        </mxCell>
        <mxCell id="uW_-9VzR9L95MaJclsEE-72" value="&lt;font color=&quot;#ffffff&quot; style=&quot;font-size: 7px;&quot;&gt;CONFIGURAÇÕES&lt;/font&gt;" style="text;html=1;strokeColor=none;fillColor=none;align=center;verticalAlign=middle;whiteSpace=wrap;rounded=0;fontColor=#143642;strokeWidth=3;" vertex="1" parent="1">
          <mxGeometry x="410" y="-806.22" width="40" height="16.22" as="geometry" />
        </mxCell>
        <mxCell id="uW_-9VzR9L95MaJclsEE-75" value="&lt;span style=&quot;font-size: 16px;&quot;&gt;&lt;font color=&quot;#000000&quot;&gt;FUNCIONALIDADE&lt;/font&gt;&lt;/span&gt;" style="text;html=1;strokeColor=none;fillColor=none;align=center;verticalAlign=middle;whiteSpace=wrap;rounded=0;fontColor=#143642;strokeWidth=3;" vertex="1" parent="1">
          <mxGeometry x="525" y="-796.22" width="150" height="30" as="geometry" />
        </mxCell>
        <mxCell id="uW_-9VzR9L95MaJclsEE-76" value="" style="endArrow=none;dashed=1;html=1;dashPattern=1 3;strokeWidth=2;rounded=0;strokeColor=#FFFFFF;fontColor=#143642;fillColor=#FAE5C7;exitX=0;exitY=0;exitDx=105;exitDy=0;exitPerimeter=0;entryX=0;entryY=0;entryDx=0;entryDy=155;entryPerimeter=0;" edge="1" parent="1" target="uW_-9VzR9L95MaJclsEE-77">
          <mxGeometry width="50" height="50" relative="1" as="geometry">
            <mxPoint x="844.9999999999995" y="-717.4400000000003" as="sourcePoint" />
            <mxPoint x="1080" y="-566.22" as="targetPoint" />
            <Array as="points" />
          </mxGeometry>
        </mxCell>
        <mxCell id="uW_-9VzR9L95MaJclsEE-77" value="" style="rounded=0;whiteSpace=wrap;html=1;fillColor=#FFFFFF;" vertex="1" parent="1">
          <mxGeometry x="485" y="-806.22" width="360" height="216.22" as="geometry" />
        </mxCell>
        <mxCell id="uW_-9VzR9L95MaJclsEE-78" value="" style="rounded=0;whiteSpace=wrap;html=1;strokeColor=#47141E;fillColor=#47141E;" vertex="1" parent="1">
          <mxGeometry x="485" y="-806.22" width="360" height="46.22" as="geometry" />
        </mxCell>
        <mxCell id="uW_-9VzR9L95MaJclsEE-79" value="" style="rounded=0;whiteSpace=wrap;html=1;fillColor=#47141E;" vertex="1" parent="1">
          <mxGeometry x="485" y="-613.78" width="360" height="23.78" as="geometry" />
        </mxCell>
        <mxCell id="uW_-9VzR9L95MaJclsEE-80" value="&lt;font color=&quot;#ffffff&quot; style=&quot;font-size: 16px;&quot;&gt;LOGO&lt;/font&gt;" style="text;html=1;strokeColor=none;fillColor=none;align=center;verticalAlign=middle;whiteSpace=wrap;rounded=0;fontColor=#143642;strokeWidth=3;" vertex="1" parent="1">
          <mxGeometry x="430" y="-806.22" width="170" height="30" as="geometry" />
        </mxCell>
        <mxCell id="uW_-9VzR9L95MaJclsEE-81" style="edgeStyle=orthogonalEdgeStyle;rounded=0;orthogonalLoop=1;jettySize=auto;html=1;exitX=0.5;exitY=1;exitDx=0;exitDy=0;" edge="1" parent="1">
          <mxGeometry relative="1" as="geometry">
            <mxPoint x="510" y="-776.22" as="sourcePoint" />
            <mxPoint x="510" y="-776.22" as="targetPoint" />
          </mxGeometry>
        </mxCell>
        <mxCell id="uW_-9VzR9L95MaJclsEE-82" value="&lt;font color=&quot;#ffffff&quot; style=&quot;font-size: 7px;&quot;&gt;CONTAS&lt;/font&gt;" style="text;html=1;strokeColor=none;fillColor=none;align=center;verticalAlign=middle;whiteSpace=wrap;rounded=0;fontColor=#143642;strokeWidth=3;" vertex="1" parent="1">
          <mxGeometry x="535" y="-776.22" width="40" height="16.22" as="geometry" />
        </mxCell>
        <mxCell id="uW_-9VzR9L95MaJclsEE-83" value="&lt;font color=&quot;#ffffff&quot; style=&quot;font-size: 7px;&quot;&gt;INDICADORES&lt;/font&gt;" style="text;html=1;strokeColor=none;fillColor=none;align=center;verticalAlign=middle;whiteSpace=wrap;rounded=0;fontColor=#143642;strokeWidth=3;" vertex="1" parent="1">
          <mxGeometry x="615" y="-776.22" width="40" height="16.22" as="geometry" />
        </mxCell>
        <mxCell id="uW_-9VzR9L95MaJclsEE-84" value="&lt;font color=&quot;#ffffff&quot; style=&quot;font-size: 7px;&quot;&gt;CAIXA&lt;/font&gt;" style="text;html=1;strokeColor=none;fillColor=none;align=center;verticalAlign=middle;whiteSpace=wrap;rounded=0;fontColor=#143642;strokeWidth=3;" vertex="1" parent="1">
          <mxGeometry x="685" y="-776.22" width="40" as="geometry" />
        </mxCell>
        <mxCell id="uW_-9VzR9L95MaJclsEE-85" value="&lt;font color=&quot;#ffffff&quot;&gt;&lt;span style=&quot;font-size: 7px;&quot;&gt;PAGAMENTOS&lt;/span&gt;&lt;/font&gt;" style="text;html=1;strokeColor=none;fillColor=none;align=center;verticalAlign=middle;whiteSpace=wrap;rounded=0;fontColor=#143642;strokeWidth=3;" vertex="1" parent="1">
          <mxGeometry x="755" y="-776.22" width="40" height="16.22" as="geometry" />
        </mxCell>
        <mxCell id="uW_-9VzR9L95MaJclsEE-86" value="&lt;font color=&quot;#ffffff&quot; style=&quot;font-size: 7px;&quot;&gt;CONFIGURAÇÕES&lt;/font&gt;" style="text;html=1;strokeColor=none;fillColor=none;align=center;verticalAlign=middle;whiteSpace=wrap;rounded=0;fontColor=#143642;strokeWidth=3;" vertex="1" parent="1">
          <mxGeometry x="795" y="-806.22" width="40" height="16.22" as="geometry" />
        </mxCell>
        <mxCell id="uW_-9VzR9L95MaJclsEE-89" value="&lt;span style=&quot;font-size: 16px;&quot;&gt;&lt;font color=&quot;#000000&quot;&gt;FUNCIONALIDADE&lt;/font&gt;&lt;/span&gt;" style="text;html=1;strokeColor=none;fillColor=none;align=center;verticalAlign=middle;whiteSpace=wrap;rounded=0;fontColor=#143642;strokeWidth=3;" vertex="1" parent="1">
          <mxGeometry x="915" y="-796.22" width="150" height="30" as="geometry" />
        </mxCell>
        <mxCell id="uW_-9VzR9L95MaJclsEE-90" value="" style="endArrow=none;dashed=1;html=1;dashPattern=1 3;strokeWidth=2;rounded=0;strokeColor=#FFFFFF;fontColor=#143642;fillColor=#FAE5C7;exitX=0;exitY=0;exitDx=105;exitDy=0;exitPerimeter=0;entryX=0;entryY=0;entryDx=0;entryDy=155;entryPerimeter=0;" edge="1" parent="1" target="uW_-9VzR9L95MaJclsEE-91">
          <mxGeometry width="50" height="50" relative="1" as="geometry">
            <mxPoint x="1234.9999999999995" y="-717.4400000000003" as="sourcePoint" />
            <mxPoint x="1470" y="-566.22" as="targetPoint" />
            <Array as="points" />
          </mxGeometry>
        </mxCell>
        <mxCell id="uW_-9VzR9L95MaJclsEE-91" value="" style="rounded=0;whiteSpace=wrap;html=1;fillColor=#FFFFFF;" vertex="1" parent="1">
          <mxGeometry x="875" y="-806.22" width="360" height="216.22" as="geometry" />
        </mxCell>
        <mxCell id="uW_-9VzR9L95MaJclsEE-92" value="" style="rounded=0;whiteSpace=wrap;html=1;strokeColor=#47141E;fillColor=#47141E;" vertex="1" parent="1">
          <mxGeometry x="875" y="-806.22" width="360" height="46.22" as="geometry" />
        </mxCell>
        <mxCell id="uW_-9VzR9L95MaJclsEE-93" value="" style="rounded=0;whiteSpace=wrap;html=1;fillColor=#47141E;" vertex="1" parent="1">
          <mxGeometry x="875" y="-613.78" width="360" height="23.78" as="geometry" />
        </mxCell>
        <mxCell id="uW_-9VzR9L95MaJclsEE-94" value="&lt;font color=&quot;#ffffff&quot; style=&quot;font-size: 16px;&quot;&gt;LOGO&lt;/font&gt;" style="text;html=1;strokeColor=none;fillColor=none;align=center;verticalAlign=middle;whiteSpace=wrap;rounded=0;fontColor=#143642;strokeWidth=3;" vertex="1" parent="1">
          <mxGeometry x="820" y="-806.22" width="170" height="30" as="geometry" />
        </mxCell>
        <mxCell id="uW_-9VzR9L95MaJclsEE-95" style="edgeStyle=orthogonalEdgeStyle;rounded=0;orthogonalLoop=1;jettySize=auto;html=1;exitX=0.5;exitY=1;exitDx=0;exitDy=0;" edge="1" parent="1">
          <mxGeometry relative="1" as="geometry">
            <mxPoint x="900" y="-776.22" as="sourcePoint" />
            <mxPoint x="900" y="-776.22" as="targetPoint" />
          </mxGeometry>
        </mxCell>
        <mxCell id="uW_-9VzR9L95MaJclsEE-96" value="&lt;font color=&quot;#ffffff&quot; style=&quot;font-size: 7px;&quot;&gt;CONTAS&lt;/font&gt;" style="text;html=1;strokeColor=none;fillColor=none;align=center;verticalAlign=middle;whiteSpace=wrap;rounded=0;fontColor=#143642;strokeWidth=3;" vertex="1" parent="1">
          <mxGeometry x="925" y="-776.22" width="40" height="16.22" as="geometry" />
        </mxCell>
        <mxCell id="uW_-9VzR9L95MaJclsEE-97" value="&lt;font color=&quot;#ffffff&quot; style=&quot;font-size: 7px;&quot;&gt;INDICADORES&lt;/font&gt;" style="text;html=1;strokeColor=none;fillColor=none;align=center;verticalAlign=middle;whiteSpace=wrap;rounded=0;fontColor=#143642;strokeWidth=3;" vertex="1" parent="1">
          <mxGeometry x="1005" y="-776.22" width="40" height="16.22" as="geometry" />
        </mxCell>
        <mxCell id="uW_-9VzR9L95MaJclsEE-98" value="&lt;font color=&quot;#ffffff&quot; style=&quot;font-size: 7px;&quot;&gt;CAIXA&lt;/font&gt;" style="text;html=1;strokeColor=none;fillColor=none;align=center;verticalAlign=middle;whiteSpace=wrap;rounded=0;fontColor=#143642;strokeWidth=3;" vertex="1" parent="1">
          <mxGeometry x="1075" y="-776.22" width="40" as="geometry" />
        </mxCell>
        <mxCell id="uW_-9VzR9L95MaJclsEE-99" value="&lt;font color=&quot;#ffffff&quot;&gt;&lt;span style=&quot;font-size: 7px;&quot;&gt;PAGAMENTOS&lt;/span&gt;&lt;/font&gt;" style="text;html=1;strokeColor=none;fillColor=none;align=center;verticalAlign=middle;whiteSpace=wrap;rounded=0;fontColor=#143642;strokeWidth=3;" vertex="1" parent="1">
          <mxGeometry x="1145" y="-776.22" width="40" height="16.22" as="geometry" />
        </mxCell>
        <mxCell id="uW_-9VzR9L95MaJclsEE-100" value="&lt;font color=&quot;#ffffff&quot; style=&quot;font-size: 7px;&quot;&gt;CONFIGURAÇÕES&lt;/font&gt;" style="text;html=1;strokeColor=none;fillColor=none;align=center;verticalAlign=middle;whiteSpace=wrap;rounded=0;fontColor=#143642;strokeWidth=3;" vertex="1" parent="1">
          <mxGeometry x="1185" y="-806.22" width="40" height="16.22" as="geometry" />
        </mxCell>
        <mxCell id="uW_-9VzR9L95MaJclsEE-103" value="&lt;font color=&quot;#ffffff&quot; style=&quot;font-size: 16px;&quot;&gt;INDICADORES&lt;/font&gt;" style="text;html=1;strokeColor=none;fillColor=none;align=center;verticalAlign=middle;whiteSpace=wrap;rounded=0;fontColor=#143642;strokeWidth=3;" vertex="1" parent="1">
          <mxGeometry x="-330" y="-836.22" width="170" height="30" as="geometry" />
        </mxCell>
        <mxCell id="uW_-9VzR9L95MaJclsEE-104" value="&lt;font color=&quot;#ffffff&quot; style=&quot;font-size: 16px;&quot;&gt;PAGAMENTOS&lt;/font&gt;" style="text;html=1;strokeColor=none;fillColor=none;align=center;verticalAlign=middle;whiteSpace=wrap;rounded=0;fontColor=#143642;strokeWidth=3;" vertex="1" parent="1">
          <mxGeometry x="460" y="-836.22" width="170" height="30" as="geometry" />
        </mxCell>
        <mxCell id="uW_-9VzR9L95MaJclsEE-105" value="&lt;font color=&quot;#ffffff&quot; style=&quot;font-size: 16px;&quot;&gt;FLUXO DE CAIXA&lt;/font&gt;" style="text;html=1;strokeColor=none;fillColor=none;align=center;verticalAlign=middle;whiteSpace=wrap;rounded=0;fontColor=#143642;strokeWidth=3;" vertex="1" parent="1">
          <mxGeometry x="85" y="-836.22" width="170" height="30" as="geometry" />
        </mxCell>
        <mxCell id="uW_-9VzR9L95MaJclsEE-106" value="&lt;font color=&quot;#ffffff&quot; style=&quot;font-size: 16px;&quot;&gt;CONFIGURAÇÕES&lt;/font&gt;" style="text;html=1;strokeColor=none;fillColor=none;align=center;verticalAlign=middle;whiteSpace=wrap;rounded=0;fontColor=#143642;strokeWidth=3;" vertex="1" parent="1">
          <mxGeometry x="870" y="-836.22" width="170" height="30" as="geometry" />
        </mxCell>
        <mxCell id="uW_-9VzR9L95MaJclsEE-108" value="&lt;span style=&quot;font-size: 16px;&quot;&gt;&lt;font color=&quot;#000000&quot;&gt;FUNCIONALIDADE&lt;/font&gt;&lt;/span&gt;" style="text;html=1;strokeColor=none;fillColor=none;align=center;verticalAlign=middle;whiteSpace=wrap;rounded=0;fontColor=#143642;strokeWidth=3;" vertex="1" parent="1">
          <mxGeometry x="-375" y="-1456.22" width="150" height="30" as="geometry" />
        </mxCell>
        <mxCell id="uW_-9VzR9L95MaJclsEE-109" value="" style="endArrow=none;dashed=1;html=1;dashPattern=1 3;strokeWidth=2;rounded=0;strokeColor=#FFFFFF;fontColor=#143642;fillColor=#FAE5C7;exitX=0;exitY=0;exitDx=105;exitDy=0;exitPerimeter=0;entryX=0;entryY=0;entryDx=0;entryDy=155;entryPerimeter=0;" edge="1" parent="1" target="uW_-9VzR9L95MaJclsEE-110">
          <mxGeometry width="50" height="50" relative="1" as="geometry">
            <mxPoint x="-55.000000000000455" y="-1377.4400000000003" as="sourcePoint" />
            <mxPoint x="180" y="-1226.22" as="targetPoint" />
            <Array as="points" />
          </mxGeometry>
        </mxCell>
        <mxCell id="uW_-9VzR9L95MaJclsEE-110" value="" style="rounded=0;whiteSpace=wrap;html=1;fillColor=#47141E;" vertex="1" parent="1">
          <mxGeometry x="-415" y="-1466.22" width="360" height="216.22" as="geometry" />
        </mxCell>
        <mxCell id="uW_-9VzR9L95MaJclsEE-114" style="edgeStyle=orthogonalEdgeStyle;rounded=0;orthogonalLoop=1;jettySize=auto;html=1;exitX=0.5;exitY=1;exitDx=0;exitDy=0;" edge="1" parent="1">
          <mxGeometry relative="1" as="geometry">
            <mxPoint x="-390" y="-1436.22" as="sourcePoint" />
            <mxPoint x="-390" y="-1436.22" as="targetPoint" />
          </mxGeometry>
        </mxCell>
        <mxCell id="uW_-9VzR9L95MaJclsEE-120" value="" style="rounded=0;whiteSpace=wrap;html=1;fillColor=#47141E;" vertex="1" parent="1">
          <mxGeometry x="620" y="-1466.22" width="360" height="216.22" as="geometry" />
        </mxCell>
        <mxCell id="uW_-9VzR9L95MaJclsEE-121" value="" style="rounded=1;whiteSpace=wrap;html=1;fillColor=#FFFFFF;" vertex="1" parent="1">
          <mxGeometry x="-295" y="-1388.11" width="120" height="60" as="geometry" />
        </mxCell>
        <mxCell id="uW_-9VzR9L95MaJclsEE-123" value="" style="edgeStyle=none;rounded=1;html=1;dashed=1;labelBackgroundColor=none;startArrow=none;startFill=0;startSize=8;endArrow=open;endFill=0;endSize=16;fontFamily=Verdana;fontSize=12;strokeColor=#FFFFFF;fontColor=default;strokeWidth=2;exitX=0;exitY=0;exitDx=105;exitDy=0;exitPerimeter=0;entryX=0;entryY=0.5;entryDx=0;entryDy=0;" edge="1" parent="1" target="uW_-9VzR9L95MaJclsEE-120">
          <mxGeometry relative="1" as="geometry">
            <mxPoint x="-50" y="-1355" as="sourcePoint" />
            <mxPoint x="618.3499999999999" y="-1366.1599999999999" as="targetPoint" />
            <Array as="points" />
          </mxGeometry>
        </mxCell>
        <mxCell id="uW_-9VzR9L95MaJclsEE-122" value="" style="rounded=1;whiteSpace=wrap;html=1;fillColor=#FFFFFF;" vertex="1" parent="1">
          <mxGeometry x="740" y="-1388.11" width="120" height="60" as="geometry" />
        </mxCell>
        <mxCell id="uW_-9VzR9L95MaJclsEE-124" value="&lt;font color=&quot;#ffffff&quot; style=&quot;font-size: 16px;&quot;&gt;LOGO&lt;/font&gt;" style="text;html=1;strokeColor=none;fillColor=none;align=center;verticalAlign=middle;whiteSpace=wrap;rounded=0;fontColor=#143642;strokeWidth=3;" vertex="1" parent="1">
          <mxGeometry x="715" y="-1456.22" width="170" height="30" as="geometry" />
        </mxCell>
        <mxCell id="uW_-9VzR9L95MaJclsEE-125" value="&lt;font color=&quot;#ffffff&quot; style=&quot;font-size: 16px;&quot;&gt;LOGO&lt;/font&gt;" style="text;html=1;strokeColor=none;fillColor=none;align=center;verticalAlign=middle;whiteSpace=wrap;rounded=0;fontColor=#143642;strokeWidth=3;" vertex="1" parent="1">
          <mxGeometry x="-320" y="-1450" width="170" height="30" as="geometry" />
        </mxCell>
      </root>
    </mxGraphModel>
  </diagram>
</mxfile>
